<svg id="Layer_1" data-name="Layer 1" xmlns="http://www.w3.org/2000/svg" viewBox="0 0 440 576"><defs><style>.cls-1{fill:#4ac1e0;}.cls-2{fill:#fff;}.cls-3{fill:#3b5053;}</style></defs><title>ThinkTaco_Logo_Mark_Blue</title><polygon class="cls-1" points="389.38 547 220 451.72 50.62 547 50.62 29 389.38 29 389.38 547"/><path class="cls-2" d="M176.56,304.1c6,20.22,15,23.36,15,23.36l.2,1.49a121.41,121.41,0,0,1,38.34-5.76c4.87-.54,9.73-1.11,14.59-1.65a94.46,94.46,0,0,1,14.81-2.29l0-2.23c4.08-3.51,8.08-14.83,6-30.72s16.3-59.69,19.71-83.41-15.07-53-32.91-65.9-66.71-31.65-105.19,8.1-20.08,79.41-10.61,98.1S170.57,283.87,176.56,304.1Z"/><path class="cls-3" d="M274.27,401.67l-36.5,5.63-3.45-4.87-7.55-5.65-13.68-9.08-.88-2.11a14,14,0,0,1-.85-2.79l-.21-.06L209.28,381a10.48,10.48,0,0,1-2.54-7.54,9.86,9.86,0,0,1,.69-2.93,9.6,9.6,0,0,1-2.39-5.25,9.25,9.25,0,0,1,1-5.36,10.28,10.28,0,0,1-1.94-7.76,8.71,8.71,0,0,1,.27-1.23,10.87,10.87,0,0,1-2.79-9l-1.05-8.81c-4.38-3.45-10.78-10.92-15.15-26.68-2.95-10.65-12.27-22.86-21.29-34.66-7.24-9.48-14.08-18.44-18.37-27.28-8.49-17.53-31.06-64.08,14.13-109.17,40.1-40,92.54-26.19,118-7.14,20.49,15.33,39.91,48.57,35.54,75.52C311.66,214.53,307,229,302.49,243c-5.46,16.91-11.64,36.06-10.74,43.83,1.86,16.19-1.66,28.56-6.57,35.13l3.54,5.12-.11,2.56a12.36,12.36,0,0,1-.81,3.75,10.65,10.65,0,0,1,2,6.72,10.33,10.33,0,0,1-.85,3.53,9.66,9.66,0,0,1,1.77,4.74,10.16,10.16,0,0,1-.52,4.27,9.12,9.12,0,0,1,1.28,2.21,10.65,10.65,0,0,1,0,7.8,8.65,8.65,0,0,1,1.42,2.35c1.51,3.66.51,7.63-2.93,11.82s-8.31,9.37-9.78,10.92l-5.29,8.13Zm-30-10.73,17.06-2.64,7.41-10.57c.05-.06,4.26-4.49,7.7-8.46a15.87,15.87,0,0,1-1.94-5.39l-.71-4.63.84-.6a18.62,18.62,0,0,1-1.2-2.71l-1.78-4.87,1.32-1.16a9.28,9.28,0,0,1-1.72-4.42,9.18,9.18,0,0,1,1.58-6.28,11.13,11.13,0,0,1-1.19-8.82l.26-.92-2-2.88,0-11,2.73-2.28c1.6-1.34,5.67-10,4-24.71-1.27-11,4.87-30.07,11.37-50.22,4.33-13.46,8.82-27.37,10.4-37.12,3.3-20.37-13-48.46-29.65-60.94-14.7-11-61-31.41-98.19,5.73-37.54,37.45-19.07,75.54-11.19,91.81,3.62,7.47,10,15.83,16.78,24.69,9.89,12.95,20.12,26.34,23.85,39.82,4.41,15.94,10.61,19.3,10.66,19.33l4.36,1.61.14,4.44,1.6,13.43a11,11,0,0,1,4.55,9,9.68,9.68,0,0,1-.77,3.61,12.18,12.18,0,0,1,1.47,4.91,12.36,12.36,0,0,1-.45,4.28,10.82,10.82,0,0,1,2.6,7,10.55,10.55,0,0,1-.41,2.81,9.14,9.14,0,0,1,2.42,5.46l9.31,6.18Zm-36.38-29.07h0Zm74.29-12.45h0ZM210,344.48l-.16.06ZM284.64,330h0Z"/><path class="cls-3" d="M230.44,322.77l-5.63.87-6.36-41.25-1.39-21.2-35.92-62.77,2.49-1.41c.5-.28,12-6.68,22.84-5.75,3.65-1.78,18.42-8.21,30.88-1.62a33.33,33.33,0,0,1,18.8-2.9l3,.46L244,256l7,21.18,6.29,40.53-5.63.87-6.18-40.08-7.35-22.21,14.15-64.17a28.48,28.48,0,0,0-13.53,3.24l-1.48.86-1.46-.9c-11.46-7.13-27.25,1.3-27.4,1.39l-.81.44-.91-.12c-6.53-.81-13.86,2-17.65,3.7l33.64,58.8,1.47,22.27Z"/><polygon class="cls-3" points="234.74 226.62 219.66 228.94 202.05 194.67 200.53 187.94 206.08 186.69 207.52 193.06 222.83 222.69 229.77 221.62 234.41 192.79 233.58 184.41 239.24 183.85 240.08 193.32 234.74 226.62"/><rect class="cls-3" x="222.68" y="227" width="5.69" height="28.22" transform="translate(-34.12 37.2) rotate(-8.77)"/><rect class="cls-3" x="228.95" y="225.8" width="5.69" height="27.98" transform="translate(-33.84 38.14) rotate(-8.77)"/><path class="cls-3" d="M221.44,262.71,218.26,258c.46-.31,11.44-7.55,22.6-4.46L239.33,259C230.69,256.62,221.52,262.64,221.44,262.71Z"/><rect class="cls-3" x="207.69" y="316.07" width="67.58" height="5.69" transform="translate(-45.79 40.54) rotate(-8.77)"/><rect class="cls-3" x="207.92" y="330.29" width="69.35" height="5.69" transform="translate(-63.49 57.2) rotate(-11.9)"/><rect class="cls-3" x="215.66" y="340.44" width="62.28" height="5.69" transform="translate(-69.2 62.39) rotate(-12.65)"/><rect class="cls-3" x="216.79" y="352.43" width="60.11" height="5.69" transform="translate(-70.3 61.04) rotate(-12.35)"/><rect class="cls-3" x="219.09" y="362.6" width="62.02" height="5.69" transform="translate(-73.19 62.81) rotate(-12.5)"/><rect class="cls-3" x="226.14" y="377.36" width="47.9" height="5.69" transform="translate(-58.54 45.76) rotate(-9.37)"/><path class="cls-2" d="M297.78,127.73c2.14-3.34,4.44-6.53,6.72-9.73l3.49-4.73,3.6-4.62c1.22-1.52,2.26-3.21,3.39-4.82a16.93,16.93,0,0,1,4.08-4.15,29.52,29.52,0,0,1,5.21-3,22.23,22.23,0,0,1,6.39-1.83l.76.75a22.21,22.21,0,0,1-1.83,6.4,29.52,29.52,0,0,1-3,5.21,16.72,16.72,0,0,1-4.15,4.07c-1.61,1.13-3.3,2.18-4.82,3.4l-4.62,3.6-4.73,3.49c-3.2,2.28-6.39,4.58-9.73,6.72Z"/><path class="cls-2" d="M330.8,181.14c3.87-.89,7.74-1.58,11.6-2.28l5.81-1,5.8-.79c1.93-.23,3.87-.71,5.8-1.08a17.18,17.18,0,0,1,5.81-.12,29.31,29.31,0,0,1,5.84,1.49,22.1,22.1,0,0,1,5.85,3.15v1.07a22.24,22.24,0,0,1-5.77,3.3,29.8,29.8,0,0,1-5.8,1.63,17.17,17.17,0,0,1-5.81,0c-1.94-.32-3.89-.76-5.83-.94l-5.82-.65-5.82-.81c-3.89-.6-7.77-1.19-11.65-2Z"/><path class="cls-2" d="M320.92,245.71c3.91.69,7.73,1.58,11.56,2.45l5.71,1.4,5.65,1.55c1.88.54,3.84.86,5.76,1.28a17.13,17.13,0,0,1,5.4,2.16,29.76,29.76,0,0,1,4.78,3.66,22.12,22.12,0,0,1,4.15,5.2l-.41,1a22,22,0,0,1-6.6.77,29,29,0,0,1-6-.77,17.1,17.1,0,0,1-5.36-2.26c-1.66-1.05-3.28-2.21-5-3.15l-5.1-2.87-5-3c-3.34-2.08-6.68-4.14-9.94-6.39Z"/><path class="cls-2" d="M141.47,127.17c-3.34-2.15-6.53-4.44-9.73-6.72L127,117l-4.62-3.6c-1.52-1.23-3.21-2.27-4.82-3.4a17.07,17.07,0,0,1-4.15-4.07,29.25,29.25,0,0,1-3-5.22,22.14,22.14,0,0,1-1.83-6.39l.76-.75a22.23,22.23,0,0,1,6.39,1.82,29.52,29.52,0,0,1,5.21,3,17.29,17.29,0,0,1,4.08,4.15c1.13,1.61,2.17,3.31,3.39,4.83L132,112l3.49,4.74c2.28,3.2,4.58,6.39,6.72,9.72Z"/><path class="cls-2" d="M109.18,180.88c-3.88.8-7.76,1.38-11.65,2l-5.82.8-5.82.65c-1.94.19-3.89.62-5.83.94a17.17,17.17,0,0,1-5.81,0,29.11,29.11,0,0,1-5.8-1.63,22,22,0,0,1-5.77-3.3v-1.06a22.15,22.15,0,0,1,5.85-3.16,30,30,0,0,1,5.84-1.49,17.18,17.18,0,0,1,5.81.13c1.93.36,3.87.84,5.8,1.08l5.8.79,5.81,1c3.86.7,7.73,1.38,11.6,2.27Z"/><path class="cls-2" d="M119.48,245.37c-3.26,2.26-6.6,4.32-9.94,6.4l-5,3-5.1,2.88c-1.71.93-3.33,2.09-5,3.15a17.58,17.58,0,0,1-5.36,2.26,29.73,29.73,0,0,1-6,.77,22,22,0,0,1-6.6-.78l-.41-1a22.12,22.12,0,0,1,4.15-5.2A29.12,29.12,0,0,1,85,253.24a17.15,17.15,0,0,1,5.4-2.17c1.92-.42,3.88-.73,5.76-1.27l5.65-1.55,5.71-1.4c3.83-.88,7.65-1.76,11.56-2.46Z"/></svg>