<svg id="Layer_1" data-name="Layer 1" xmlns="http://www.w3.org/2000/svg" viewBox="0 0 1036 294"><defs><style>.cls-1{fill:#3b5053;stroke:#fff;stroke-miterlimit:10;stroke-width:0.9px;}.cls-2{fill:#4ac1e0;}.cls-3{isolation:isolate;}</style></defs><title>ThinkTaco_Logotype_with_tag</title><path class="cls-1" d="M151,217c-1,3.12-1.86,5.93-2.57,8.41-.19.71-.53,1.06-1,1.06a6.1,6.1,0,0,1-3.58-1.45,2.44,2.44,0,0,1-.68-2.66q1.11-5.31,5.66-19.87a11.13,11.13,0,0,1-1.4-3.58c0-.45.3-.86.92-1.21a23.4,23.4,0,0,1,11.6-3.24q3.67,0,5.18,1.84a10.71,10.71,0,0,1,2.61,6.82c0,1.87-1,3.86-2.9,6a23.44,23.44,0,0,1-6,4.55A38.89,38.89,0,0,1,151,217Zm2.27-6.92a17.14,17.14,0,0,0,6.77-4.26q2.33-2.42,2.08-4.06c-.1-.51-.68-.77-1.74-.77a10.32,10.32,0,0,0-4.26,1.06C155.41,204,154.46,206.67,153.3,210.09Z"/><path class="cls-1" d="M171.53,218.17a37.36,37.36,0,0,1,2.08-10.5q1.17-3.76,4.11-11.32.43-1.11,1.26-1.11a4.62,4.62,0,0,1,2,.73,6.94,6.94,0,0,1,1.74,1.21,2.63,2.63,0,0,1,.87,1.88,3.83,3.83,0,0,1-.29,1.36q-5.66,14.36-5.66,18.67c0,1.09.28,1.74.83,1.93q3.33,1.11,10.44-25,.34-1.2,1.26-1.2a7.17,7.17,0,0,1,4.06,1.88,1.81,1.81,0,0,1,.87,1.31,3.45,3.45,0,0,1-.19,1q-2.72,10.06-4.21,14.18-3.63,9.9-7.54,12.18a7.84,7.84,0,0,1-4.45.87,8.26,8.26,0,0,1-4.55-1.64C172.42,223.28,171.53,221.13,171.53,218.17Z"/><path class="cls-1" d="M220.47,200l-5.27.53q-4.2,12.08-7.78,24.87c-.2.71-.52,1.07-1,1.07a6.68,6.68,0,0,1-3.68-1.55c-.71-.52-.93-1.42-.67-2.71a182.22,182.22,0,0,1,5.8-20.7c-.77.13-1.79.32-3.05.58a1.78,1.78,0,0,1-2.08-.77,11.46,11.46,0,0,1-.92-2,7,7,0,0,1-.53-2c0-.39.31-.64.92-.77a79.6,79.6,0,0,1,16.3-1.88,2.07,2.07,0,0,1,1.84.78,7.52,7.52,0,0,1,1.21,3.18,1.73,1.73,0,0,1-.1,1.09C221.36,199.84,221,199.94,220.47,200Z"/><path class="cls-1" d="M238.9,217.83a4.52,4.52,0,0,1,2.13-.49,3.6,3.6,0,0,1,2.47.78c2.06,1.8,3.86,2.71,5.41,2.71,1.1,0,1.65-.31,1.65-.92s-.79-1.52-2.37-2.9a47.76,47.76,0,0,1-4.07-3.78,7.53,7.53,0,0,1-1.88-5.07,9.25,9.25,0,0,1,.82-3.73,20.38,20.38,0,0,1,3.1-4.84,18.81,18.81,0,0,1,4.15-3.77,6.26,6.26,0,0,1,3.25-1,6.79,6.79,0,0,1,3.19.94,9.8,9.8,0,0,1,2.75,2.1,5.31,5.31,0,0,1,1.07,4.45,25,25,0,0,1-2.57,8c-.32.61-.69.92-1.11.92a1.83,1.83,0,0,1-.72-.19q-3.24-1.41-3.24-3.73a3.44,3.44,0,0,1,.09-.77c.07-.26.34-1.19.83-2.81a11.29,11.29,0,0,0,.58-2.51q0-.35-.15-.39-.78-.43-2.95,2.18a8.24,8.24,0,0,0-2.32,5.13,3.2,3.2,0,0,0,.58,2,51.81,51.81,0,0,0,4.59,4.43q2.76,2.52,2.76,4.45a4,4,0,0,1-.48,1.84q-2.8,5.41-8.27,5.56c-3.42.09-6.42-1.69-9-5.37a4.49,4.49,0,0,1-1-2.18A1.14,1.14,0,0,1,238.9,217.83Z"/><path class="cls-1" d="M283.88,197.08a6.77,6.77,0,0,1,1.93,4.64,33.48,33.48,0,0,1-1.16,9.39,32.67,32.67,0,0,1-4.21,10.3q-3.29,4.88-7.44,4.88a9.92,9.92,0,0,1-5.86-1.74,6.4,6.4,0,0,1-2.46-3.48,13.88,13.88,0,0,1-.53-4,27.84,27.84,0,0,1,2.61-11.26,25.4,25.4,0,0,1,6.77-9.48,6.68,6.68,0,0,1,4.4-1.55,9.06,9.06,0,0,1,3.22.7A8,8,0,0,1,283.88,197.08ZM279,200.27q-1.07-.33-3.24,2.86a31.8,31.8,0,0,0-3.38,6.57,24.71,24.71,0,0,0-1.79,8.56q0,2.91,1.35,2.91t3-2.64a29.89,29.89,0,0,0,3.05-6.7,29.3,29.3,0,0,0,1.79-9.19Q279.77,200.51,279,200.27Z"/><path class="cls-1" d="M300,207q-3.14,10-5.32,18.19c-.19.77-.55,1.16-1.06,1.16a6.31,6.31,0,0,1-3.39-1.4,2.06,2.06,0,0,1-.92-1.7,6.65,6.65,0,0,1,.1-1q.78-4.17,3.39-13,2.27-7.65,4.11-12.92.53-1.5,1.74-1.5a6.22,6.22,0,0,1,.68,0,19.25,19.25,0,0,1,4.45,1.36,2.51,2.51,0,0,1,1.49,1.3,4.53,4.53,0,0,1,.25,2c0,1.49-.05,5.1-.05,10.84q4.2-7.94,8.32-14.56a2.44,2.44,0,0,1,2-1.35,6.13,6.13,0,0,1,1.45.24,24.08,24.08,0,0,1,4.83,1.89,1.62,1.62,0,0,1,1,1.46,4.06,4.06,0,0,1-.24,1.21q-4.31,12.57-7.84,25.76c-.22.87-.63,1.31-1.21,1.31a6.13,6.13,0,0,1-3.28-1.36,2,2,0,0,1-.87-1.65,6.84,6.84,0,0,1,.09-1q1.17-5.68,4.35-15.84-3.44,6.24-8.7,16.06c-.42.8-.82,1.21-1.21,1.21a6.22,6.22,0,0,1-2.71-.83,2.81,2.81,0,0,1-1.35-2.66C299.93,216.52,299.89,212.1,300,207Z"/><path class="cls-1" d="M330.6,201a10,10,0,0,1-1.16-3.19,1,1,0,0,1,.82-1.36,60,60,0,0,1,14-1.84,1.75,1.75,0,0,1,1.89,1.36,15.74,15.74,0,0,1,.58,2.71,1.28,1.28,0,0,1-1.3,1.54q-3.93.39-7.6,1c-.51,1.42-1.34,3.63-2.46,6.63a31.29,31.29,0,0,1,3.72-.34,1.8,1.8,0,0,1,2,1.11,11.75,11.75,0,0,1,.68,2.8,1.34,1.34,0,0,1-1.21,1.6q-2.61.48-7.64,1.64-1.06,3-1.5,4.41a51.09,51.09,0,0,1,5.8-.78,1.72,1.72,0,0,1,2,1.07,11.69,11.69,0,0,1,.72,2.85,1.34,1.34,0,0,1-1.16,1.64q-3,.63-8.46,2a4.43,4.43,0,0,1-1.36.25,2.34,2.34,0,0,1-1.69-.78,28.33,28.33,0,0,1-1.94-2.08,3.51,3.51,0,0,1-.58-3.14Q325.8,215.37,330.6,201Z"/><path class="cls-1" d="M388.44,200c-1.1.1-2.85.28-5.27.53q-4.21,12.08-7.79,24.87c-.19.71-.52,1.07-1,1.07a6.66,6.66,0,0,1-3.67-1.55c-.71-.52-.94-1.42-.68-2.71a184.34,184.34,0,0,1,5.8-20.7c-.77.13-1.78.32-3,.58a1.78,1.78,0,0,1-2.08-.77,10.12,10.12,0,0,1-.92-2,6.68,6.68,0,0,1-.53-2c0-.39.3-.64.92-.77a79.41,79.41,0,0,1,16.29-1.88,2.05,2.05,0,0,1,1.84.78,7.39,7.39,0,0,1,1.21,3.18,1.66,1.66,0,0,1-.1,1.09C389.33,199.84,389,199.94,388.44,200Z"/><path class="cls-1" d="M414.65,198.72q-4.15,11.47-8.51,26.56c-.23.7-.55,1.06-1,1.06a3,3,0,0,1-.67-.1,8.4,8.4,0,0,1-3-1.4,2.43,2.43,0,0,1-.63-2.61q.48-2.32,1.84-7.26c-1.16.2-2.89.5-5.18.92q-1.69,5.61-2.76,9.34c-.19.74-.53,1.11-1,1.11a6.68,6.68,0,0,1-3.68-1.55,1.9,1.9,0,0,1-.87-1.59,66.56,66.56,0,0,1,2-8.61,20.61,20.61,0,0,1-.72-2.18,2.51,2.51,0,0,1-.1-.63c0-.35.63-.71,1.89-1.06q2.94-10.35,4.5-14.56c.29-.8.7-1.21,1.25-1.21a5.87,5.87,0,0,1,2.23.82,13.45,13.45,0,0,1,2,1.21c.61.49.92.94.92,1.36a2.58,2.58,0,0,1-.24,1q-1.74,4.8-3.44,10.11,1.69-.19,4.89-.48,2.37-7.89,4.2-13.25c.26-.81.68-1.21,1.26-1.21A7.13,7.13,0,0,1,414,196.4a1.86,1.86,0,0,1,.83,1.36A3.1,3.1,0,0,1,414.65,198.72Z"/><path class="cls-1" d="M437,197.08a6.81,6.81,0,0,1,1.93,4.64,33.48,33.48,0,0,1-1.16,9.39,32.67,32.67,0,0,1-4.21,10.3q-3.28,4.88-7.44,4.88a9.92,9.92,0,0,1-5.86-1.74,6.4,6.4,0,0,1-2.46-3.48,13.88,13.88,0,0,1-.53-4,27.84,27.84,0,0,1,2.61-11.26,25.4,25.4,0,0,1,6.77-9.48,6.67,6.67,0,0,1,4.4-1.55,9,9,0,0,1,3.21.7A8,8,0,0,1,437,197.08Zm-4.89,3.19q-1.06-.33-3.24,2.86a31.8,31.8,0,0,0-3.38,6.57,24.71,24.71,0,0,0-1.79,8.56q0,2.91,1.35,2.91t3-2.64a30.34,30.34,0,0,0,3.05-6.7,29.3,29.3,0,0,0,1.79-9.19Q432.84,200.51,432.06,200.27Z"/><path class="cls-1" d="M443.72,218.17a37.36,37.36,0,0,1,2.08-10.5q1.15-3.76,4.11-11.32.43-1.11,1.26-1.11a4.62,4.62,0,0,1,2,.73,6.94,6.94,0,0,1,1.74,1.21,2.63,2.63,0,0,1,.87,1.88,4.06,4.06,0,0,1-.29,1.36q-5.65,14.36-5.66,18.67c0,1.09.27,1.74.82,1.93q3.35,1.11,10.45-25,.33-1.2,1.26-1.2a7.19,7.19,0,0,1,4.06,1.88,1.81,1.81,0,0,1,.87,1.31,3.45,3.45,0,0,1-.19,1q-2.72,10.06-4.21,14.18-3.63,9.9-7.55,12.18a7.8,7.8,0,0,1-4.44.87,8.24,8.24,0,0,1-4.55-1.64C444.6,223.28,443.72,221.13,443.72,218.17Z"/><path class="cls-1" d="M491,207.43a1.35,1.35,0,0,1-1.65,1.06q-3.85-.53-3.76-4.2c.09-.78.15-1.55.2-2.33,0-1.22-.12-1.88-.44-2q-1.06-.33-3.26,2.73a37.94,37.94,0,0,0-4,7.28,21.86,21.86,0,0,0-2,8.56q0,2.91,1.41,2.91c1.41,0,3-1.86,4.83-5.57-2.32.13-3.63-1.12-3.92-3.77-.06-.64.33-1.08,1.17-1.31a52.32,52.32,0,0,1,5.9-1.11,2.7,2.7,0,0,1,2.75.92,12.42,12.42,0,0,1,1.11,1.94,3.43,3.43,0,0,1,.39,1.45,4.49,4.49,0,0,1-.43,1.69,26.48,26.48,0,0,1-4.11,7.06c-2.16,2.58-4.44,3.87-6.82,3.87a10.17,10.17,0,0,1-5.81-1.93,6.33,6.33,0,0,1-2.46-3.58,12.74,12.74,0,0,1-.39-3.29,29.41,29.41,0,0,1,3.19-12.43q3.35-7.11,7.84-10.06a6.3,6.3,0,0,1,4.45-.87,8.76,8.76,0,0,1,5.22,2.37,6,6,0,0,1,1.55,4.21A18.4,18.4,0,0,1,491,207.43Z"/><path class="cls-1" d="M520.61,198.72q-4.15,11.47-8.51,26.56c-.22.7-.55,1.06-1,1.06a3,3,0,0,1-.68-.1,8.57,8.57,0,0,1-3-1.4,2.43,2.43,0,0,1-.63-2.61c.32-1.55.94-4,1.84-7.26-1.16.2-2.89.5-5.18.92q-1.69,5.61-2.75,9.34c-.2.74-.53,1.11-1,1.11a6.63,6.63,0,0,1-3.67-1.55,1.9,1.9,0,0,1-.87-1.59,64.68,64.68,0,0,1,2-8.61,19.9,19.9,0,0,1-.73-2.18,3.07,3.07,0,0,1-.1-.63c0-.35.63-.71,1.89-1.06q3-10.35,4.5-14.56c.29-.8.71-1.21,1.26-1.21a5.85,5.85,0,0,1,2.22.82,13.45,13.45,0,0,1,2,1.21c.61.49.92.94.92,1.36a2.58,2.58,0,0,1-.24,1q-1.74,4.8-3.44,10.11,1.69-.19,4.89-.48,2.37-7.89,4.21-13.25c.26-.81.67-1.21,1.26-1.21A7.19,7.19,0,0,1,520,196.4a1.88,1.88,0,0,1,.82,1.36A3.1,3.1,0,0,1,520.61,198.72Z"/><path class="cls-1" d="M546.05,200l-5.27.53q-4.2,12.08-7.78,24.87c-.2.71-.52,1.07-1,1.07a6.68,6.68,0,0,1-3.68-1.55c-.71-.52-.93-1.42-.67-2.71a182.22,182.22,0,0,1,5.8-20.7c-.77.13-1.79.32-3.05.58a1.78,1.78,0,0,1-2.08-.77,10.74,10.74,0,0,1-.92-2,7,7,0,0,1-.53-2c0-.39.31-.64.92-.77a79.51,79.51,0,0,1,16.3-1.88,2.07,2.07,0,0,1,1.84.78,7.66,7.66,0,0,1,1.21,3.18,1.73,1.73,0,0,1-.1,1.09C546.94,199.84,546.6,199.94,546.05,200Z"/><path class="cls-1" d="M577.3,197c.61.49.92.94.92,1.36a2.62,2.62,0,0,1-.25,1q-4.05,11.08-8.22,25.93c-.19.74-.53,1.11-1,1.11a6.65,6.65,0,0,1-3.68-1.55,1.9,1.9,0,0,1-.87-1.59,5.91,5.91,0,0,1,.14-1.07q.87-4.15,3.34-12.81t4.06-13.16c.29-.77.73-1.16,1.31-1.16Q574.78,195,577.3,197Z"/><path class="cls-1" d="M595,212.8q2-7.94,4.93-16.64c.26-.8.71-1.21,1.36-1.21a2.42,2.42,0,0,1,.77.15,10.94,10.94,0,0,1,2.9,1.4,1.56,1.56,0,0,1,.82,1.35,4,4,0,0,1-.24,1.21q-4,12-7.69,25.73a1.44,1.44,0,0,1-1.45,1.26,8.74,8.74,0,0,1-3.48-1.26,3.34,3.34,0,0,1-1.69-2.42,89.74,89.74,0,0,1-1.75-13.63q-1.93,6.28-4.83,16.39c-.2.71-.5,1.06-.92,1.06a5.4,5.4,0,0,1-1.91-.55,7.79,7.79,0,0,1-1.86-1,2.51,2.51,0,0,1-.63-2.67q.72-3.35,3.24-11.91,2.57-9,4.25-13.81a1.59,1.59,0,0,1,1.55-1.26,2.78,2.78,0,0,1,.73.1,24.25,24.25,0,0,1,3.87,1.6,3,3,0,0,1,1.45,2.86Q594.51,205.38,595,212.8Z"/><path class="cls-1" d="M631.17,200l-5.27.53q-4.2,12.08-7.79,24.87c-.19.71-.51,1.07-1,1.07a6.65,6.65,0,0,1-3.68-1.55c-.71-.52-.93-1.42-.68-2.71a182.58,182.58,0,0,1,5.81-20.7c-.78.13-1.79.32-3.05.58a1.78,1.78,0,0,1-2.08-.77,10.74,10.74,0,0,1-.92-2,7,7,0,0,1-.53-2c0-.39.31-.64.92-.77a79.51,79.51,0,0,1,16.3-1.88,2,2,0,0,1,1.83.78,7.39,7.39,0,0,1,1.21,3.18,1.68,1.68,0,0,1-.09,1.09C632.06,199.84,631.72,199.94,631.17,200Z"/><path class="cls-1" d="M652.4,197.08a6.78,6.78,0,0,1,1.94,4.64,33.48,33.48,0,0,1-1.16,9.39,33.14,33.14,0,0,1-4.21,10.3q-3.29,4.88-7.45,4.88a9.87,9.87,0,0,1-5.85-1.74,6.41,6.41,0,0,1-2.47-3.48,14.23,14.23,0,0,1-.53-4,27.84,27.84,0,0,1,2.61-11.26,25.62,25.62,0,0,1,6.77-9.48,6.7,6.7,0,0,1,4.4-1.55,9,9,0,0,1,3.22.7A7.87,7.87,0,0,1,652.4,197.08Zm-4.88,3.19q-1.07-.33-3.24,2.86a31.83,31.83,0,0,0-3.39,6.57,25,25,0,0,0-1.79,8.56c0,1.94.45,2.91,1.36,2.91s1.87-.88,3-2.64a30.36,30.36,0,0,0,3-6.7,29,29,0,0,0,1.79-9.19C648.29,201.22,648,200.43,647.52,200.27Z"/><path class="cls-1" d="M698.88,199.5q-1.93,3.92-10.79,16.83-1.55,4.78-2.85,9.38c-.19.71-.52,1.06-1,1.06a4.89,4.89,0,0,1-1.88-.55,8.13,8.13,0,0,1-1.79-1,2,2,0,0,1-.82-1.6,5.21,5.21,0,0,1,.14-1.11c.48-2.13,1.23-5,2.23-8.61q-.49-4-2.52-17.51a1.19,1.19,0,0,1,1.11-1.54,8.65,8.65,0,0,1,3.27,0c.88.21,1.46.94,1.71,2.2q.78,3.72,1.55,9.92,3.35-5,7.45-11.76c.35-.54.71-.82,1.06-.82a2,2,0,0,1,1,.34,8,8,0,0,1,2.23,2,1.94,1.94,0,0,1,.43,1.16A4.17,4.17,0,0,1,698.88,199.5Z"/><path class="cls-1" d="M720.11,197.08a6.82,6.82,0,0,1,1.94,4.64,33.86,33.86,0,0,1-1.16,9.39,33.14,33.14,0,0,1-4.21,10.3q-3.3,4.88-7.45,4.88a9.87,9.87,0,0,1-5.85-1.74,6.36,6.36,0,0,1-2.47-3.48,14.23,14.23,0,0,1-.53-4A27.84,27.84,0,0,1,703,205.79a25.51,25.51,0,0,1,6.77-9.48,6.7,6.7,0,0,1,4.4-1.55,9,9,0,0,1,3.22.7A7.87,7.87,0,0,1,720.11,197.08Zm-4.88,3.19q-1.07-.33-3.24,2.86a31.35,31.35,0,0,0-3.39,6.57,25,25,0,0,0-1.79,8.56c0,1.94.45,2.91,1.36,2.91s1.86-.88,3-2.64a29.89,29.89,0,0,0,3.05-6.7,29.3,29.3,0,0,0,1.79-9.19C716,201.22,715.74,200.43,715.23,200.27Z"/><path class="cls-1" d="M726.88,218.17a37.73,37.73,0,0,1,2.08-10.5q1.17-3.76,4.11-11.32.43-1.11,1.26-1.11a4.62,4.62,0,0,1,2,.73,6.94,6.94,0,0,1,1.74,1.21,2.63,2.63,0,0,1,.87,1.88,3.83,3.83,0,0,1-.29,1.36Q733,214.78,733,219.09c0,1.09.28,1.74.83,1.93q3.33,1.11,10.44-25,.35-1.2,1.26-1.2a7.17,7.17,0,0,1,4.06,1.88,1.81,1.81,0,0,1,.87,1.31,3.45,3.45,0,0,1-.19,1q-2.71,10.06-4.21,14.18-3.63,9.9-7.54,12.18a7.84,7.84,0,0,1-4.45.87,8.26,8.26,0,0,1-4.55-1.64C727.77,223.28,726.88,221.13,726.88,218.17Z"/><path class="cls-1" d="M759.82,216.28c-1.13,3.39-2.07,6.35-2.81,8.9-.19.71-.53,1.06-1,1.06a2.94,2.94,0,0,1-.63-.09,7.42,7.42,0,0,1-2.61-1.12,2.37,2.37,0,0,1-.73-2.66q1.07-5.37,5.71-19.87a10.2,10.2,0,0,1-1.4-3.58,1.39,1.39,0,0,1,.87-1.21,23.4,23.4,0,0,1,11.6-3.24q3.68,0,5.18,1.84a10.82,10.82,0,0,1,2.61,6.91,8.26,8.26,0,0,1-2.85,5.9,30.8,30.8,0,0,1-7.84,5.32,61.45,61.45,0,0,0,6,8.32,1.55,1.55,0,0,1,.48,1c0,.29-.22.62-.67,1a6.27,6.27,0,0,1-2,1,3.82,3.82,0,0,1-1,.15,3.5,3.5,0,0,1-2.37-1.07A34.64,34.64,0,0,1,759.82,216.28ZM765,201.92q-.68,1.64-3,8a19.31,19.31,0,0,0,6.82-4.31c1.68-1.67,2.42-3,2.23-3.82-.13-.61-.81-.92-2-.92A9.33,9.33,0,0,0,765,201.92Z"/><path class="cls-1" d="M802.28,201.58a12,12,0,0,1-1.4-3.53,1.49,1.49,0,0,1,.92-1.26,17.06,17.06,0,0,1,8.51-2.18q7.35,0,9.62,6.24a12.69,12.69,0,0,1,.68,4.21,20,20,0,0,1-4.16,11.85,26.07,26.07,0,0,1-12.53,9.43,4.56,4.56,0,0,1-1.5.29,3.15,3.15,0,0,1-1.88-.68,29.63,29.63,0,0,1-2.76-2.56,3.33,3.33,0,0,1-1.11-2.22,7,7,0,0,1,.34-1.94Q799.19,211.16,802.28,201.58Zm.87,18.33a20.57,20.57,0,0,0,8.56-7.74,14.92,14.92,0,0,0,2.47-7.64A5.31,5.31,0,0,0,814,203a2.84,2.84,0,0,0-3-1.89,5.65,5.65,0,0,0-1.83.34Q806.2,209.47,803.15,219.91Z"/><path class="cls-1" d="M838,218c-2.19.36-5.21,1-9,1.81q-.93,1.72-2.86,5.58c-.32.62-.66.93-1,.93a2.23,2.23,0,0,1-.83-.24,7.85,7.85,0,0,1-2.32-1.6,1.86,1.86,0,0,1-.53-1.26,4.14,4.14,0,0,1,.44-1.56,212,212,0,0,1,13.64-25.42,3.42,3.42,0,0,1,3.33-1.79,19.49,19.49,0,0,1,6.39,1.45c.74.36,1,1.13.87,2.32q-1.5,10.41-2.62,26.7c-.06.93-.53,1.4-1.4,1.4a6.72,6.72,0,0,1-3.31-.58,2.45,2.45,0,0,1-.94-2.27C837.83,222.57,837.89,220.75,838,218Zm-5.32-5.22q3.72-.58,5.66-.73.48-6.09,1.11-11.22Q836.52,205.8,832.7,212.75Z"/><path class="cls-1" d="M872.16,199.5q-1.93,3.92-10.78,16.83-1.54,4.78-2.85,9.38c-.2.71-.52,1.06-1,1.06a5,5,0,0,1-1.89-.55,8.64,8.64,0,0,1-1.79-1,2,2,0,0,1-.82-1.6,5.33,5.33,0,0,1,.15-1.11q.72-3.19,2.22-8.61-.48-4-2.51-17.51a1.19,1.19,0,0,1,1.11-1.54,8.59,8.59,0,0,1,3.26,0c.89.21,1.46.94,1.72,2.2.52,2.48,1,5.79,1.55,9.92q3.33-5,7.45-11.76c.35-.54.7-.82,1.06-.82a2,2,0,0,1,1,.34,7.92,7.92,0,0,1,2.22,2,2,2,0,0,1,.44,1.16A4.06,4.06,0,0,1,872.16,199.5Z"/><path class="cls-1" d="M877.77,219.47a4.08,4.08,0,0,1,1.21.2,2.82,2.82,0,0,1,2.08,2.9,4.8,4.8,0,0,1-.24,1.5,4.58,4.58,0,0,1-1.26,1.83A3.72,3.72,0,0,1,877.1,227a2.85,2.85,0,0,1-2.23-.9,3.29,3.29,0,0,1-.92-2.39,4.51,4.51,0,0,1,1.09-2.95A3.43,3.43,0,0,1,877.77,219.47ZM889,194.81a2.05,2.05,0,0,1,.82,1.5,3.08,3.08,0,0,1-.24,1.06q-4.93,12.38-7.45,20.07c-.23.71-.58,1.06-1.07,1.06a6.74,6.74,0,0,1-3.43-1.3,1.71,1.71,0,0,1-.87-1.45,4.27,4.27,0,0,1,.19-1.16q2-7.5,6.58-20.46.43-1.26,1.26-1.26a5.47,5.47,0,0,1,2.22.73A9.55,9.55,0,0,1,889,194.81Z"/><polygon class="cls-2" points="83.45 150.04 91.73 158.41 74.57 158.41 66.28 150.04 83.45 150.04"/><polygon class="cls-2" points="67.38 93.94 75.66 102.31 48.48 102.31 40.2 93.94 67.38 93.94"/><polygon class="cls-2" points="111.72 93.94 120.01 102.31 92.83 102.31 84.55 93.94 111.72 93.94"/><polygon class="cls-2" points="112.03 78.55 120.31 86.91 120.01 102.31 111.72 93.94 112.03 78.55"/><polygon class="cls-2" points="84.55 93.94 92.83 102.31 91.73 158.41 83.45 150.04 84.55 93.94"/><g class="cls-3"><polygon class="cls-2" points="164.03 78.55 172.31 86.91 171.72 116.82 163.44 108.46 164.03 78.55"/><polygon class="cls-2" points="163.14 123.86 171.42 132.22 170.91 158.41 162.63 150.04 163.14 123.86"/><polygon class="cls-2" points="162.63 150.04 170.91 158.41 153.75 158.41 145.46 150.04 162.63 150.04"/><polygon class="cls-2" points="194.39 123.86 202.67 132.22 171.42 132.22 163.14 123.86 194.39 123.86"/><polygon class="cls-2" points="211.04 150.04 219.32 158.41 202.16 158.41 193.88 150.04 211.04 150.04"/><polygon class="cls-2" points="212.44 78.55 220.72 86.91 219.32 158.41 211.04 150.04 212.44 78.55"/><polygon class="cls-1" points="212.44 78.55 211.04 150.04 193.88 150.04 194.39 123.86 163.14 123.86 162.63 150.04 145.46 150.04 146.86 78.55 164.03 78.55 163.44 108.46 194.69 108.46 195.28 78.55 212.44 78.55"/></g><g class="cls-3"><path class="cls-2" d="M257.94,92.36,249.66,84a9.84,9.84,0,0,0,7,2.9L265,95.27A9.85,9.85,0,0,1,257.94,92.36Z"/><path class="cls-2" d="M263.93,69.83l8.28,8.36a9.9,9.9,0,0,1,2.85,7.17A10.09,10.09,0,0,1,265,95.27L256.7,86.9A10.07,10.07,0,0,0,266.77,77,9.83,9.83,0,0,0,263.93,69.83Z"/><path class="cls-1" d="M256.7,86.9a9.7,9.7,0,0,1-9.82-9.9,10.3,10.3,0,0,1,10.21-10,9.72,9.72,0,0,1,9.68,10A10.07,10.07,0,0,1,256.7,86.9Z"/></g><g class="cls-3"><polygon class="cls-2" points="265.14 93.62 273.42 101.99 272.31 158.41 264.03 150.04 265.14 93.62"/><polygon class="cls-2" points="264.03 150.04 272.31 158.41 255.15 158.41 246.87 150.04 264.03 150.04"/><polygon class="cls-1" points="246.87 150.04 247.97 93.62 265.14 93.62 264.03 150.04 246.87 150.04"/></g><g class="cls-3"><polygon class="cls-2" points="320.77 150.04 329.06 158.41 311.92 158.41 303.64 150.04 320.77 150.04"/><polygon class="cls-2" points="321.61 107.25 329.89 115.62 329.06 158.41 320.77 150.04 321.61 107.25"/><polygon class="cls-2" points="322.17 78.55 330.45 86.91 365.22 131.44 356.94 123.08 322.17 78.55"/><polygon class="cls-2" points="373.58 150.04 381.86 158.41 364.69 158.41 356.41 150.04 373.58 150.04"/><polygon class="cls-2" points="374.98 78.55 383.26 86.91 381.86 158.41 373.58 150.04 374.98 78.55"/><polygon class="cls-1" points="374.98 78.55 373.58 150.04 356.41 150.04 321.61 107.25 320.77 150.04 303.64 150.04 305.04 78.55 322.17 78.55 356.94 123.08 357.81 78.55 374.98 78.55"/></g><g class="cls-3"><polygon class="cls-2" points="432.17 78.55 440.45 86.91 439.89 115.62 431.61 107.25 432.17 78.55"/><polygon class="cls-2" points="438.57 122.44 446.85 130.8 439.45 138.27 431.17 129.91 438.57 122.44"/><polygon class="cls-2" points="483.42 78.55 491.7 86.91 458.99 118.13 450.71 109.77 483.42 78.55"/><polygon class="cls-2" points="431.17 129.33 439.45 137.86 439.06 158.41 430.77 149.87 431.17 129.33"/><polygon class="cls-2" points="430.77 150.04 439.06 158.41 421.89 158.41 413.61 150.04 430.77 150.04"/><polygon class="cls-2" points="483.9 150.04 492.18 158.41 467.87 158.41 459.59 150.04 483.9 150.04"/><polygon class="cls-2" points="450.71 109.77 458.99 118.13 492.18 158.41 483.9 150.04 450.71 109.77"/><polygon class="cls-1" points="483.42 78.55 450.71 109.77 483.9 150.04 459.59 150.04 438.57 122.44 431.17 129.91 430.77 150.04 413.61 150.04 415.01 78.55 432.17 78.55 431.61 107.25 461.65 78.55 483.42 78.55"/></g><g class="cls-3"><polygon class="cls-2" points="559.37 93.94 567.65 102.31 540.47 102.31 532.19 93.94 559.37 93.94"/><polygon class="cls-2" points="603.71 93.94 611.99 102.31 584.81 102.31 576.53 93.94 603.71 93.94"/><polygon class="cls-2" points="604.01 78.55 612.29 86.91 611.99 102.31 603.71 93.94 604.01 78.55"/><polygon class="cls-2" points="575.43 150.04 583.71 158.41 566.55 158.41 558.27 150.04 575.43 150.04"/><polygon class="cls-2" points="576.53 93.05 584.81 101.53 583.71 158.41 575.43 149.93 576.53 93.05"/><polygon class="cls-1" points="604.01 78.55 603.71 93.94 576.53 93.94 575.43 150.04 558.27 150.04 559.37 93.94 532.19 93.94 532.49 78.55 604.01 78.55"/></g><g class="cls-3"><polygon class="cls-2" points="658.82 103.29 667.1 111.65 656.53 134.66 648.25 126.29 658.82 103.29"/><polygon class="cls-2" points="640.83 140.24 649.11 148.61 644.1 158.41 635.82 150.04 640.83 140.24"/><polygon class="cls-2" points="635.82 150.04 644.1 158.41 624.74 158.41 616.46 150.04 635.82 150.04"/><polygon class="cls-2" points="675.48 140.24 683.76 148.61 649.11 148.61 640.83 140.24 675.48 140.24"/><polygon class="cls-2" points="699.17 150.04 707.45 158.41 688.41 158.41 680.13 150.04 699.17 150.04"/><polygon class="cls-2" points="666.35 78.55 674.63 86.91 707.45 158.41 699.17 150.04 666.35 78.55"/><path class="cls-1" d="M666.35,78.55,699.17,150h-19l-4.65-9.8H640.83l-5,9.8H616.46l36.9-71.49Zm-18.1,47.74h20.81l-10.24-23-10.57,23"/></g><g class="cls-3"><path class="cls-2" d="M750.19,137.68l-8.28-8.37a20.66,20.66,0,0,1-6-15,21.72,21.72,0,0,1,21.51-21.24c7.15,0,12.51,2.87,17.24,7.26l8.28,8.36c-4.73-4.39-10.09-7.26-17.24-7.26a21.72,21.72,0,0,0-21.51,21.24A20.68,20.68,0,0,0,750.19,137.68Z"/><polygon class="cls-2" points="787.84 91.96 796.12 100.33 782.97 108.68 774.69 100.32 787.84 91.96"/><path class="cls-2" d="M784,87.43l8.28,8.36a35.23,35.23,0,0,1,3.81,4.54L787.84,92A35.83,35.83,0,0,0,784,87.43Z"/><path class="cls-2" d="M738.32,149.39,730,141a36.79,36.79,0,0,0,26.26,10.89A38.28,38.28,0,0,0,787,136.63l8.28,8.36a38.24,38.24,0,0,1-30.67,15.29A36.79,36.79,0,0,1,738.32,149.39Z"/><path class="cls-1" d="M757.78,76.57A36.7,36.7,0,0,1,787.84,92l-13.15,8.36c-4.73-4.39-10.09-7.26-17.24-7.26a21.72,21.72,0,0,0-21.51,21.24,20.64,20.64,0,0,0,20.68,21.12c7.15,0,11.73-2.33,17.52-7.15L787,136.63a38.28,38.28,0,0,1-30.67,15.29,36.74,36.74,0,0,1-36.88-37.62A38.59,38.59,0,0,1,757.78,76.57Z"/></g><g class="cls-3"><path class="cls-2" d="M867.94,99.29l8.29,8.36a20.64,20.64,0,0,0-14.69-6.12,21.77,21.77,0,0,0-21.65,21.24,20.64,20.64,0,0,0,6,15l-8.28-8.36a20.66,20.66,0,0,1-6-15,21.76,21.76,0,0,1,21.65-21.23A20.56,20.56,0,0,1,867.94,99.29Z"/><path class="cls-2" d="M879.79,87.56l8.28,8.37a37,37,0,0,1,10.68,26.84,38.53,38.53,0,0,1-38.36,37.62A36.93,36.93,0,0,1,834,149.48l-8.28-8.36A36.9,36.9,0,0,0,852.11,152a38.52,38.52,0,0,0,38.36-37.62A37,37,0,0,0,879.79,87.56Z"/><path class="cls-1" d="M853.58,76.67a36.84,36.84,0,0,1,36.89,37.73A38.52,38.52,0,0,1,852.11,152a36.75,36.75,0,0,1-37-37.62A38.61,38.61,0,0,1,853.58,76.67Zm-1.15,58.86A21.66,21.66,0,0,0,874,114.4a20.74,20.74,0,0,0-20.71-21.23,21.76,21.76,0,0,0-21.65,21.23,20.67,20.67,0,0,0,20.82,21.13"/></g><g class="cls-3"><path class="cls-2" d="M966.85,94.06l8.28,8.37c-1.58-1.6-4.93-3.2-11-3.2-6.27,0-11.51,3.85-11.6,8.67a3.81,3.81,0,0,0,1.17,2.9l-8.29-8.36a3.89,3.89,0,0,1-1.17-2.9c.1-4.82,5.34-8.67,11.61-8.67C961.92,90.87,965.27,92.47,966.85,94.06Z"/><path class="cls-2" d="M953.77,142.52l-8.28-8.37a10.36,10.36,0,0,1-2.94-6.22l8.28,8.36A10.47,10.47,0,0,0,953.77,142.52Z"/><polygon class="cls-2" points="985.72 96.36 994 104.72 976.3 104.72 968.02 96.36 985.72 96.36"/><path class="cls-2" d="M980.76,84.84,989,93.2a16,16,0,0,1,5,11.52l-8.28-8.36A16,16,0,0,0,980.76,84.84Z"/><path class="cls-2" d="M966.91,124.39l8.28,8.36c-4.52-4.56-15.45-5.14-19.11-5.91-5.37-1.07-13.11-3-17.9-7.82l-8.28-8.36c4.79,4.83,12.53,6.75,17.9,7.81C951.46,119.25,962.38,119.82,966.91,124.39Z"/><path class="cls-2" d="M982.32,115l8.28,8.36c3.22,3.25,5.32,7.78,5.19,14.24-.24,12.31-15,22.65-32,22.65-11.57,0-19.77-4-24.91-9.17l-8.28-8.37c5.14,5.19,13.34,9.18,24.91,9.18,17,0,31.77-10.34,32-22.66C987.64,122.81,985.54,118.28,982.32,115Z"/><path class="cls-1" d="M956.09,76.57c20.13,0,29.81,10.23,29.63,19.79H968c0-1.75-2.87-5.49-12.21-5.49-6.27,0-11.51,3.85-11.61,8.67-.11,5.84,11,5.84,14.95,6.51,10,1.87,28.73,4.28,28.36,23.21-.24,12.32-15,22.66-32,22.66-21.91,0-31.75-14.3-31.56-24h18.61c0,.1.56,9.8,13.22,9.8,6.81,0,13-4.07,13.13-8.47.18-9.13-16.41-9.8-21.1-10.79-8.35-1.66-22.47-5.38-22.21-18.93C925.84,86.9,939.59,76.57,956.09,76.57Z"/></g><polygon class="cls-1" points="112.03 78.55 111.72 93.94 84.55 93.94 83.45 150.04 66.28 150.04 67.38 93.94 40.2 93.94 40.5 78.55 112.03 78.55"/></svg>