<svg id="Layer_1" data-name="Layer 1" xmlns="http://www.w3.org/2000/svg" viewBox="0 0 576 576"><defs><style>.cls-1{fill:#feaa61;}.cls-2{fill:#fff;}.cls-3{fill:#3b5053;}</style></defs><title>ThinkTaco_Logo_Mark_Orange</title><circle class="cls-1" cx="288" cy="288" r="231"/><path class="cls-2" d="M239.74,348.68c6,20.14,14.9,23.26,14.9,23.26l.2,1.48A120.84,120.84,0,0,1,293,367.69c4.86-.53,9.7-1.1,14.53-1.64a93.77,93.77,0,0,1,14.74-2.29l0-2.21c4.06-3.5,8-14.76,5.93-30.58s16.22-59.42,19.62-83-15-52.8-32.76-65.61-66.42-31.51-104.72,8.07-20,79.06-10.57,97.66S233.79,328.55,239.74,348.68Z"/><path class="cls-3" d="M337,445.82l-36.34,5.6-3.43-4.85L289.73,441l-13.61-9-.89-2.11a14.88,14.88,0,0,1-.84-2.77l-.21-.07-1.86-1.75a10.46,10.46,0,0,1-2.53-7.51,9.73,9.73,0,0,1,.69-2.92,9.5,9.5,0,0,1-2.38-5.23,9.15,9.15,0,0,1,1-5.33,10.22,10.22,0,0,1-1.94-7.73,10.38,10.38,0,0,1,.27-1.23,10.82,10.82,0,0,1-2.78-9l-1.05-8.76c-4.35-3.44-10.73-10.88-15.07-26.56-2.94-10.61-12.22-22.76-21.19-34.51-7.21-9.44-14-18.36-18.29-27.16-8.46-17.45-30.93-63.79,14.06-108.68,39.92-39.85,92.12-26.08,117.47-7.11,20.4,15.27,39.73,48.35,35.39,75.19-1.76,10.83-6.41,25.23-10.89,39.16-5.43,16.83-11.58,35.9-10.7,43.63,1.86,16.12-1.64,28.43-6.53,35l3.53,5.11-.12,2.54a11.87,11.87,0,0,1-.8,3.73,10.56,10.56,0,0,1,2,6.7,10.24,10.24,0,0,1-.85,3.51,9.58,9.58,0,0,1,1.76,4.72,10.24,10.24,0,0,1-.51,4.25,9.16,9.16,0,0,1,1.27,2.2,10.64,10.64,0,0,1,0,7.76,9,9,0,0,1,1.41,2.34c1.49,3.64.51,7.6-2.93,11.77s-8.27,9.33-9.72,10.88L337.64,440Zm-29.84-10.69,17-2.62L331.54,422c.06-.05,4.24-4.46,7.67-8.42a15.77,15.77,0,0,1-1.93-5.36l-.71-4.61.84-.6a18.83,18.83,0,0,1-1.2-2.69l-1.77-4.86,1.31-1.15a9.26,9.26,0,0,1-1.71-4.4,9.09,9.09,0,0,1,1.58-6.25,11,11,0,0,1-1.19-8.78l.26-.92-2-2.87v-11l2.72-2.26c1.59-1.34,5.65-10,4-24.61-1.26-11,4.85-29.93,11.31-50,4.32-13.4,8.79-27.25,10.36-37C364.37,226,348.16,198,331.56,185.6c-14.63-10.94-60.71-31.27-97.75,5.71-37.37,37.28-19,75.2-11.13,91.39,3.6,7.44,10,15.76,16.69,24.58,9.85,12.89,20,26.22,23.75,39.65,4.39,15.86,10.56,19.2,10.62,19.24l4.33,1.6.14,4.42,1.59,13.37a10.84,10.84,0,0,1,4.53,8.93,9.62,9.62,0,0,1-.76,3.6A12.14,12.14,0,0,1,285,403a12.48,12.48,0,0,1-.44,4.26,10.79,10.79,0,0,1,2.58,7,10.09,10.09,0,0,1-.41,2.8,9.11,9.11,0,0,1,2.41,5.44l9.27,6.15ZM271,406.2h0Zm74-12.4h0ZM273,388.88l-.15.07Zm74.32-14.39h0Z"/><path class="cls-3" d="M293.38,367.27l-5.6.87-6.33-41.06L280.06,306,244.3,243.48l2.48-1.4c.5-.28,12-6.65,22.74-5.73,3.63-1.77,18.34-8.17,30.75-1.61A33.22,33.22,0,0,1,319,231.85l3,.46-15.11,68.46,6.95,21.08,6.26,40.35-5.6.87-6.15-39.9L301,301.06l14.09-63.88a28.23,28.23,0,0,0-13.47,3.22l-1.47.86-1.46-.9c-11.41-7.09-27.13,1.3-27.28,1.39l-.81.43-.9-.11c-6.5-.82-13.79,2-17.57,3.68l33.49,58.54,1.46,22.17Z"/><polygon class="cls-3" points="297.67 271.55 282.65 273.86 265.12 239.74 263.61 233.05 269.13 231.8 270.57 238.14 285.81 267.64 292.72 266.58 297.33 237.87 296.51 229.53 302.14 228.97 302.98 238.41 297.67 271.55"/><rect class="cls-3" x="285.65" y="271.94" width="5.67" height="28.09" transform="translate(-40.22 47.32) rotate(-8.77)"/><rect class="cls-3" x="291.9" y="270.73" width="5.67" height="27.86" transform="translate(-39.95 48.26) rotate(-8.77)"/><path class="cls-3" d="M284.42,307.48l-3.16-4.71c.46-.31,11.38-7.51,22.49-4.44l-1.51,5.46C293.64,301.41,284.5,307.41,284.42,307.48Z"/><rect class="cls-3" x="270.73" y="360.6" width="67.28" height="5.67" transform="matrix(0.99, -0.15, 0.15, 0.99, -51.84, 50.65)"/><rect class="cls-3" x="270.97" y="374.76" width="69.04" height="5.67" transform="translate(-71.31 71.12) rotate(-11.9)"/><rect class="cls-3" x="278.67" y="384.86" width="62" height="5.66" transform="translate(-77.4 77.24) rotate(-12.65)"/><rect class="cls-3" x="279.8" y="396.8" width="59.84" height="5.66" transform="translate(-78.33 75.52) rotate(-12.35)"/><rect class="cls-3" x="282.08" y="406.93" width="61.74" height="5.66" transform="translate(-81.29 77.47) rotate(-12.5)"/><rect class="cls-3" x="289.11" y="421.62" width="47.69" height="5.67" transform="translate(-64.9 56.58) rotate(-9.37)"/><path class="cls-2" d="M360.45,173.14c2.19-3.27,4.51-6.41,6.82-9.56l3.53-4.65,3.63-4.56c1.22-1.5,2.3-3.16,3.44-4.74a18.5,18.5,0,0,1,4.06-4.13,31.49,31.49,0,0,1,5.09-3.09,22.93,22.93,0,0,1,6.17-2l.69.68a23,23,0,0,1-2,6.17,31.31,31.31,0,0,1-3.09,5.1,18.67,18.67,0,0,1-4.13,4.05c-1.58,1.15-3.23,2.22-4.74,3.45l-4.55,3.63L370.69,167c-3.15,2.31-6.28,4.63-9.55,6.82Z"/><path class="cls-2" d="M393.3,226.32c3.85-.81,7.7-1.44,11.55-2.08l5.78-.87,5.77-.72c1.93-.23,3.85-.66,5.78-1a18.74,18.74,0,0,1,5.79-.11,30.55,30.55,0,0,1,5.8,1.34,22.45,22.45,0,0,1,5.82,2.87l0,1a23,23,0,0,1-5.75,3,30.83,30.83,0,0,1-5.77,1.49,18.74,18.74,0,0,1-5.79,0c-1.93-.29-3.87-.68-5.8-.85l-5.8-.58-5.79-.73c-3.87-.55-7.73-1.08-11.6-1.79Z"/><path class="cls-2" d="M383.44,290.59c3.86.77,7.65,1.7,11.44,2.62l5.66,1.46,5.6,1.6c1.86.55,3.8.91,5.7,1.36a18.54,18.54,0,0,1,5.37,2.15A30.83,30.83,0,0,1,422,303.3a22.72,22.72,0,0,1,4.24,4.92l-.37.89a22.46,22.46,0,0,1-6.47.51,31.33,31.33,0,0,1-5.89-.89,18.58,18.58,0,0,1-5.34-2.24c-1.66-1-3.29-2.14-5-3.06l-5.1-2.8-5-2.95c-3.34-2-6.69-4-10-6.19Z"/><path class="cls-2" d="M204.84,172.51c-3.26-2.19-6.4-4.51-9.55-6.81l-4.66-3.53-4.55-3.63c-1.5-1.23-3.16-2.3-4.74-3.45a18.67,18.67,0,0,1-4.13-4.05,32,32,0,0,1-3.09-5.1,22.7,22.7,0,0,1-2-6.17l.68-.68a22.93,22.93,0,0,1,6.17,2,31.49,31.49,0,0,1,5.09,3.09,18.5,18.5,0,0,1,4.06,4.13c1.15,1.58,2.22,3.24,3.44,4.74l3.63,4.56,3.53,4.65c2.31,3.15,4.63,6.29,6.82,9.56Z"/><path class="cls-2" d="M172.67,226c-3.87.71-7.73,1.24-11.6,1.79l-5.79.73-5.8.58c-1.93.17-3.86.56-5.8.85a18.67,18.67,0,0,1-5.78,0,30.44,30.44,0,0,1-5.77-1.49,22.51,22.51,0,0,1-5.75-3v-1a22.45,22.45,0,0,1,5.82-2.87,31.25,31.25,0,0,1,5.81-1.34,18.38,18.38,0,0,1,5.78.12c1.93.33,3.85.76,5.78,1l5.78.72,5.77.87c3.85.64,7.71,1.27,11.55,2.08Z"/><path class="cls-2" d="M182.91,290.18c-3.28,2.18-6.63,4.18-10,6.2l-5.05,2.94-5.1,2.8c-1.71.92-3.34,2-5,3.06a18.58,18.58,0,0,1-5.34,2.24,30.53,30.53,0,0,1-5.89.89,22.46,22.46,0,0,1-6.47-.51l-.37-.89A22.72,22.72,0,0,1,144,302a31.3,31.3,0,0,1,4.81-3.52,18.54,18.54,0,0,1,5.37-2.15c1.9-.45,3.84-.81,5.7-1.36l5.6-1.6,5.66-1.46c3.79-.92,7.58-1.85,11.44-2.62Z"/></svg>