<svg id="Layer_1" data-name="Layer 1" xmlns="http://www.w3.org/2000/svg" viewBox="0 0 1036 172"><defs><style>.cls-1{fill:#4ac1e0;}.cls-2{isolation:isolate;}.cls-3{fill:#3b5053;stroke:#fff;stroke-miterlimit:10;stroke-width:0.9px;}</style></defs><title>ThinkTaco_Logotype</title><polygon class="cls-1" points="83.45 122.36 91.73 130.72 74.57 130.72 66.28 122.36 83.45 122.36"/><polygon class="cls-1" points="67.38 66.26 75.66 74.62 48.48 74.62 40.2 66.26 67.38 66.26"/><polygon class="cls-1" points="111.72 66.26 120.01 74.62 92.83 74.62 84.55 66.26 111.72 66.26"/><polygon class="cls-1" points="112.03 50.86 120.31 59.23 120.01 74.62 111.72 66.26 112.03 50.86"/><polygon class="cls-1" points="84.55 66.26 92.83 74.62 91.73 130.72 83.45 122.36 84.55 66.26"/><g class="cls-2"><polygon class="cls-1" points="164.03 50.86 172.31 59.23 171.72 89.14 163.44 80.77 164.03 50.86"/><polygon class="cls-1" points="163.14 96.17 171.42 104.53 170.91 130.72 162.63 122.36 163.14 96.17"/><polygon class="cls-1" points="162.63 122.36 170.91 130.72 153.75 130.72 145.46 122.36 162.63 122.36"/><polygon class="cls-1" points="194.39 96.17 202.67 104.53 171.42 104.53 163.14 96.17 194.39 96.17"/><polygon class="cls-1" points="211.04 122.36 219.32 130.72 202.16 130.72 193.88 122.36 211.04 122.36"/><polygon class="cls-1" points="212.44 50.86 220.72 59.23 219.32 130.72 211.04 122.36 212.44 50.86"/><polygon class="cls-3" points="212.44 50.86 211.04 122.36 193.88 122.36 194.39 96.17 163.14 96.17 162.63 122.36 145.46 122.36 146.86 50.86 164.03 50.86 163.44 80.77 194.69 80.77 195.28 50.86 212.44 50.86"/></g><g class="cls-2"><path class="cls-1" d="M257.94,64.68l-8.28-8.36a9.89,9.89,0,0,0,7,2.9L265,67.58A9.84,9.84,0,0,1,257.94,64.68Z"/><path class="cls-1" d="M263.93,42.14l8.28,8.37a9.87,9.87,0,0,1,2.85,7.16A10.09,10.09,0,0,1,265,67.58l-8.28-8.36a10.07,10.07,0,0,0,10.07-9.91A9.86,9.86,0,0,0,263.93,42.14Z"/><path class="cls-3" d="M256.7,59.22a9.71,9.71,0,0,1-9.82-9.91,10.29,10.29,0,0,1,10.21-10,9.71,9.71,0,0,1,9.68,10A10.07,10.07,0,0,1,256.7,59.22Z"/></g><g class="cls-2"><polygon class="cls-1" points="265.14 65.94 273.42 74.3 272.31 130.72 264.03 122.36 265.14 65.94"/><polygon class="cls-1" points="264.03 122.36 272.31 130.72 255.15 130.72 246.87 122.36 264.03 122.36"/><polygon class="cls-3" points="246.87 122.36 247.97 65.94 265.14 65.94 264.03 122.36 246.87 122.36"/></g><g class="cls-2"><polygon class="cls-1" points="320.77 122.36 329.06 130.72 311.92 130.72 303.64 122.36 320.77 122.36"/><polygon class="cls-1" points="321.61 79.57 329.89 87.93 329.06 130.72 320.77 122.36 321.61 79.57"/><polygon class="cls-1" points="322.17 50.86 330.45 59.23 365.22 103.76 356.94 95.39 322.17 50.86"/><polygon class="cls-1" points="373.58 122.36 381.86 130.72 364.69 130.72 356.41 122.36 373.58 122.36"/><polygon class="cls-1" points="374.98 50.86 383.26 59.23 381.86 130.72 373.58 122.36 374.98 50.86"/><polygon class="cls-3" points="374.98 50.86 373.58 122.36 356.41 122.36 321.61 79.57 320.77 122.36 303.64 122.36 305.04 50.86 322.17 50.86 356.94 95.39 357.81 50.86 374.98 50.86"/></g><g class="cls-2"><polygon class="cls-1" points="432.17 50.86 440.45 59.23 439.89 87.93 431.61 79.57 432.17 50.86"/><polygon class="cls-1" points="438.57 94.75 446.85 103.11 439.45 110.59 431.17 102.22 438.57 94.75"/><polygon class="cls-1" points="483.42 50.86 491.7 59.23 458.99 90.45 450.71 82.09 483.42 50.86"/><polygon class="cls-1" points="431.17 101.64 439.45 110.17 439.06 130.72 430.77 122.19 431.17 101.64"/><polygon class="cls-1" points="430.77 122.36 439.06 130.72 421.89 130.72 413.61 122.36 430.77 122.36"/><polygon class="cls-1" points="483.9 122.36 492.18 130.72 467.87 130.72 459.59 122.36 483.9 122.36"/><polygon class="cls-1" points="450.71 82.09 458.99 90.45 492.18 130.72 483.9 122.36 450.71 82.09"/><polygon class="cls-3" points="483.42 50.86 450.71 82.09 483.9 122.36 459.59 122.36 438.57 94.75 431.17 102.22 430.77 122.36 413.61 122.36 415.01 50.86 432.17 50.86 431.61 79.57 461.65 50.86 483.42 50.86"/></g><g class="cls-2"><polygon class="cls-1" points="559.37 66.26 567.65 74.62 540.47 74.62 532.19 66.26 559.37 66.26"/><polygon class="cls-1" points="603.71 66.26 611.99 74.62 584.81 74.62 576.53 66.26 603.71 66.26"/><polygon class="cls-1" points="604.01 50.86 612.29 59.23 611.99 74.62 603.71 66.26 604.01 50.86"/><polygon class="cls-1" points="575.43 122.36 583.71 130.72 566.55 130.72 558.27 122.36 575.43 122.36"/><polygon class="cls-1" points="576.53 65.36 584.81 73.84 583.71 130.72 575.43 122.24 576.53 65.36"/><polygon class="cls-3" points="604.01 50.86 603.71 66.26 576.53 66.26 575.43 122.36 558.27 122.36 559.37 66.26 532.19 66.26 532.49 50.86 604.01 50.86"/></g><g class="cls-2"><polygon class="cls-1" points="658.82 75.61 667.1 83.97 656.53 106.97 648.25 98.61 658.82 75.61"/><polygon class="cls-1" points="640.83 112.56 649.11 120.92 644.1 130.72 635.82 122.36 640.83 112.56"/><polygon class="cls-1" points="635.82 122.36 644.1 130.72 624.74 130.72 616.46 122.36 635.82 122.36"/><polygon class="cls-1" points="675.48 112.56 683.76 120.92 649.11 120.92 640.83 112.56 675.48 112.56"/><polygon class="cls-1" points="699.17 122.36 707.45 130.72 688.41 130.72 680.13 122.36 699.17 122.36"/><polygon class="cls-1" points="666.35 50.86 674.63 59.23 707.45 130.72 699.17 122.36 666.35 50.86"/><path class="cls-3" d="M666.35,50.86l32.82,71.5h-19l-4.65-9.8H640.83l-5,9.8H616.46l36.9-71.5Zm-18.1,47.75h20.81l-10.24-23-10.57,23"/></g><g class="cls-2"><path class="cls-1" d="M750.19,110l-8.28-8.36a20.66,20.66,0,0,1-6-15,21.72,21.72,0,0,1,21.51-21.23c7.15,0,12.51,2.86,17.24,7.25L783,81c-4.73-4.39-10.09-7.26-17.24-7.26A21.72,21.72,0,0,0,744.22,95,20.66,20.66,0,0,0,750.19,110Z"/><polygon class="cls-1" points="787.84 64.28 796.12 72.64 782.97 81 774.69 72.63 787.84 64.28"/><path class="cls-1" d="M784,59.74l8.28,8.36a36.64,36.64,0,0,1,3.81,4.54l-8.28-8.36A35.92,35.92,0,0,0,784,59.74Z"/><path class="cls-1" d="M738.32,121.71,730,113.35a36.78,36.78,0,0,0,26.26,10.88A38.25,38.25,0,0,0,787,108.94l8.28,8.37a38.27,38.27,0,0,1-30.67,15.29A36.79,36.79,0,0,1,738.32,121.71Z"/><path class="cls-3" d="M757.78,48.88a36.68,36.68,0,0,1,30.06,15.4l-13.15,8.35c-4.73-4.39-10.09-7.25-17.24-7.25a21.72,21.72,0,0,0-21.51,21.23,20.64,20.64,0,0,0,20.68,21.13c7.15,0,11.73-2.33,17.52-7.15L787,108.94a38.25,38.25,0,0,1-30.67,15.29,36.74,36.74,0,0,1-36.88-37.62A38.6,38.6,0,0,1,757.78,48.88Z"/></g><g class="cls-2"><path class="cls-1" d="M867.94,71.61,876.23,80a20.6,20.6,0,0,0-14.69-6.12,21.76,21.76,0,0,0-21.65,21.23,20.66,20.66,0,0,0,6,15l-8.28-8.37a20.64,20.64,0,0,1-6-15,21.77,21.77,0,0,1,21.65-21.24A20.57,20.57,0,0,1,867.94,71.61Z"/><path class="cls-1" d="M879.79,59.88l8.28,8.36a37,37,0,0,1,10.68,26.84,38.52,38.52,0,0,1-38.36,37.62A36.92,36.92,0,0,1,834,121.8l-8.28-8.37a36.87,36.87,0,0,0,26.38,10.91,38.52,38.52,0,0,0,38.36-37.62A37,37,0,0,0,879.79,59.88Z"/><path class="cls-3" d="M853.58,49a36.84,36.84,0,0,1,36.89,37.73,38.52,38.52,0,0,1-38.36,37.62,36.75,36.75,0,0,1-37-37.62A38.61,38.61,0,0,1,853.58,49Zm-1.15,58.86A21.66,21.66,0,0,0,874,86.72a20.75,20.75,0,0,0-20.71-21.24,21.77,21.77,0,0,0-21.65,21.24,20.67,20.67,0,0,0,20.82,21.13"/></g><g class="cls-2"><path class="cls-1" d="M966.85,66.38l8.28,8.36c-1.58-1.59-4.93-3.2-11-3.2-6.27,0-11.51,3.86-11.6,8.68a3.79,3.79,0,0,0,1.17,2.89l-8.29-8.36a3.86,3.86,0,0,1-1.17-2.89c.1-4.82,5.34-8.68,11.61-8.68C961.92,63.18,965.27,64.78,966.85,66.38Z"/><path class="cls-1" d="M953.77,114.83l-8.28-8.36a10.4,10.4,0,0,1-2.94-6.23l8.28,8.36A10.43,10.43,0,0,0,953.77,114.83Z"/><polygon class="cls-1" points="985.72 68.67 994 77.03 976.3 77.03 968.02 68.67 985.72 68.67"/><path class="cls-1" d="M980.76,57.16,989,65.52A15.94,15.94,0,0,1,994,77l-8.28-8.36A15.92,15.92,0,0,0,980.76,57.16Z"/><path class="cls-1" d="M966.91,96.71l8.28,8.36c-4.52-4.57-15.45-5.14-19.11-5.92-5.37-1.06-13.11-3-17.9-7.81L929.9,83c4.79,4.83,12.53,6.75,17.9,7.82C951.46,91.56,962.38,92.14,966.91,96.71Z"/><path class="cls-1" d="M982.32,87.35l8.28,8.36c3.22,3.25,5.32,7.78,5.19,14.23-.24,12.32-15,22.66-32,22.66-11.57,0-19.77-4-24.91-9.18l-8.28-8.36c5.14,5.19,13.34,9.17,24.91,9.17,17,0,31.77-10.33,32-22.65C987.64,95.13,985.54,90.59,982.32,87.35Z"/><path class="cls-3" d="M956.09,48.88c20.13,0,29.81,10.23,29.63,19.79H968c0-1.74-2.87-5.49-12.21-5.49-6.27,0-11.51,3.86-11.61,8.68-.11,5.83,11,5.83,14.95,6.5,10,1.88,28.73,4.29,28.36,23.22-.24,12.32-15,22.65-32,22.65-21.91,0-31.75-14.3-31.56-24h18.61c0,.11.56,9.8,13.22,9.8,6.81,0,13-4.07,13.13-8.46.18-9.13-16.41-9.8-21.1-10.79-8.35-1.66-22.47-5.38-22.21-18.93C925.84,59.22,939.59,48.88,956.09,48.88Z"/></g><polygon class="cls-3" points="112.03 50.86 111.72 66.26 84.55 66.26 83.45 122.36 66.28 122.36 67.38 66.26 40.2 66.26 40.5 50.86 112.03 50.86"/></svg>